<?xml version="1.0" encoding="UTF-8" standalone="no"?>
<svg
   xmlns:dc="http://purl.org/dc/elements/1.1/"
   xmlns:cc="http://creativecommons.org/ns#"
   xmlns:rdf="http://www.w3.org/1999/02/22-rdf-syntax-ns#"
   xmlns:svg="http://www.w3.org/2000/svg"
   xmlns="http://www.w3.org/2000/svg"
   xmlns:sodipodi="http://sodipodi.sourceforge.net/DTD/sodipodi-0.dtd"
   xmlns:inkscape="http://www.inkscape.org/namespaces/inkscape"
   viewBox="-0.2 -1 512 512"
   version="1.1"
   id="svg23"
   sodipodi:docname="OctoFork.svg"
   inkscape:version="1.0.2 (e86c870879, 2021-01-15)"
   inkscape:export-xdpi="96"
   inkscape:export-ydpi="96">
  <metadata
     id="metadata29">
    <rdf:RDF>
      <cc:Work
         rdf:about="">
        <dc:format>image/svg+xml</dc:format>
        <dc:type
           rdf:resource="http://purl.org/dc/dcmitype/StillImage" />
        <dc:title />
      </cc:Work>
    </rdf:RDF>
  </metadata>
  <defs
     id="defs27" />
  <sodipodi:namedview
     pagecolor="#868686"
     bordercolor="#3b3b3b"
     borderopacity="1"
     objecttolerance="10"
     gridtolerance="10"
     guidetolerance="10"
     inkscape:pageopacity="0"
     inkscape:pageshadow="2"
     inkscape:window-width="1920"
     inkscape:window-height="1016"
     id="namedview25"
     showgrid="false"
     inkscape:pagecheckerboard="true"
     inkscape:zoom="1.3743193"
     inkscape:cx="37.483372"
     inkscape:cy="213.04798"
     inkscape:window-x="0"
     inkscape:window-y="27"
     inkscape:window-maximized="1"
     inkscape:current-layer="svg23"
     inkscape:document-rotation="0" />
  <g
     id="g867"
     transform="matrix(1.348602,0,0,1.348602,-0.0024402,40.001465)">
    <path
       id="cat"
       fill="#000000"
       d="m 378.18,141.32 0.28,-1.389 c -31.162,-6.231 -63.141,-6.294 -82.487,-5.49 3.178,-11.451 4.134,-24.627 4.134,-39.32 0,-21.073 -7.917,-37.931 -20.77,-50.759 2.246,-7.25 5.246,-23.351 -2.996,-43.963 0,0 -14.541,-4.617 -47.431,17.396 -12.884,-3.22 -26.596,-4.81 -40.328,-4.81 -15.109,0 -30.376,1.924 -44.615,5.83 C 110.027,-4.339 95.044,0.404 95.044,0.404 85.264,24.861 91.311,42.97 93.148,47.467 81.653,59.873 74.635,75.71 74.635,95.126 c 0,14.658 1.669,27.808 5.745,39.237 -19.511,-0.71 -50.323,-0.437 -80.373,5.572 l 0.276,1.389 c 30.231,-6.046 61.237,-6.256 80.629,-5.522 0.898,2.366 1.899,4.661 3.021,6.879 -19.177,0.618 -51.922,3.062 -83.303,11.915 l 0.387,1.36 c 31.629,-8.918 64.658,-11.301 83.649,-11.882 11.458,21.358 34.048,35.152 74.236,39.484 -5.704,3.833 -11.523,10.349 -13.881,21.374 -7.773,3.718 -32.379,12.793 -47.142,-12.599 0,0 -8.264,-15.109 -24.082,-16.292 0,0 -15.344,-0.235 -1.059,9.562 0,0 10.267,4.838 17.351,23.019 0,0 9.241,31.01 53.835,21.061 v 32.032 c 0,0 -0.943,11.33 -11.33,15.105 0,0 -6.137,4.249 0.475,6.606 0,0 28.792,2.361 28.792,-21.238 v -34.929 c 0,0 -1.142,-13.852 5.663,-18.667 v 57.371 c 0,0 -0.47,13.688 -7.551,18.881 0,0 -4.723,8.494 5.663,6.137 0,0 19.824,-2.832 20.769,-25.961 l 0.449,-58.06 h 4.765 l 0.453,58.06 c 0.943,23.129 20.768,25.961 20.768,25.961 10.383,2.357 5.663,-6.137 5.663,-6.137 -7.08,-5.193 -7.551,-18.881 -7.551,-18.881 v -56.876 c 6.801,5.296 5.663,18.171 5.663,18.171 v 34.929 c 0,23.6 28.793,21.238 28.793,21.238 6.606,-2.357 0.474,-6.606 0.474,-6.606 -10.386,-3.775 -11.33,-15.105 -11.33,-15.105 v -45.786 c 0,-17.854 -7.518,-27.309 -14.87,-32.3 42.859,-4.25 63.426,-18.089 72.903,-39.591 18.773,0.516 52.557,2.803 84.873,11.919 l 0.384,-1.36 c -32.131,-9.063 -65.692,-11.408 -84.655,-11.96 0.898,-2.172 1.682,-4.431 2.378,-6.755 19.25,-0.8 51.38,-0.79 82.66,5.46 z" />
    <path
       id="octo1"
       fill="#c3e4d8"
       d="m 80.641,179.82 c 0,1.174 -1.376,2.122 -3.07,2.122 -1.693,0 -3.07,-0.948 -3.07,-2.122 0,-1.175 1.377,-2.127 3.07,-2.127 1.694,0 3.07,0.95 3.07,2.13 z" />
    <path
       id="octo2"
       fill="#c3e4d8"
       d="m 89.041,184.54 c 0,1.174 -1.376,2.122 -3.07,2.122 -1.693,0 -3.07,-0.948 -3.07,-2.122 0,-1.175 1.377,-2.127 3.07,-2.127 1.694,0 3.07,0.95 3.07,2.13 z" />
    <path
       id="octo3"
       fill="#c3e4d8"
       d="m 94.234,190.68 c 0,1.174 -1.376,2.122 -3.07,2.122 -1.693,0 -3.07,-0.948 -3.07,-2.122 0,-1.175 1.377,-2.127 3.07,-2.127 1.694,0 3.07,0.95 3.07,2.13 z" />
    <path
       id="octo4"
       fill="#c3e4d8"
       d="m 98.954,197.76 c 0,1.174 -1.376,2.122 -3.07,2.122 -1.693,0 -3.07,-0.948 -3.07,-2.122 0,-1.175 1.377,-2.127 3.07,-2.127 1.694,0 3.07,0.95 3.07,2.13 z" />
    <path
       id="octo5"
       fill="#c3e4d8"
       d="m 104.142,204.37 c 0,1.174 -1.376,2.122 -3.07,2.122 -1.693,0 -3.07,-0.948 -3.07,-2.122 0,-1.175 1.377,-2.127 3.07,-2.127 1.694,0 3.07,0.95 3.07,2.13 z" />
    <path
       id="octo6"
       fill="#c3e4d8"
       d="m 111.232,210.03 c 0,1.174 -1.376,2.122 -3.07,2.122 -1.693,0 -3.07,-0.948 -3.07,-2.122 0,-1.175 1.377,-2.127 3.07,-2.127 1.694,0 3.07,0.95 3.07,2.13 z" />
    <path
       id="octo7"
       fill="#c3e4d8"
       d="m 121.142,213.81 c 0,1.174 -1.376,2.122 -3.07,2.122 -1.693,0 -3.07,-0.948 -3.07,-2.122 0,-1.175 1.377,-2.127 3.07,-2.127 1.694,0 3.07,0.95 3.07,2.13 z" />
    <path
       id="octo8"
       fill="#c3e4d8"
       d="m 131.012,213.81 c 0,1.174 -1.376,2.122 -3.07,2.122 -1.693,0 -3.07,-0.948 -3.07,-2.122 0,-1.175 1.377,-2.127 3.07,-2.127 1.694,0 3.07,0.95 3.07,2.13 z" />
    <path
       id="octo9"
       fill="#c3e4d8"
       d="m 141.022,212.17 c 0,1.174 -1.376,2.122 -3.07,2.122 -1.693,0 -3.07,-0.948 -3.07,-2.122 0,-1.175 1.377,-2.127 3.07,-2.127 1.694,0 3.07,0.95 3.07,2.13 z" />
    <circle
       style="fill:none;fill-opacity:1;stroke:#000000;stroke-width:8.755;stroke-linecap:round;stroke-linejoin:round;stroke-miterlimit:4;stroke-dasharray:none;stroke-opacity:1"
       id="path854"
       cx="257.19193"
       cy="283.49094"
       r="12.152729" />
    <circle
       style="fill:none;fill-opacity:1;stroke:#000000;stroke-width:8.755;stroke-linecap:round;stroke-linejoin:round;stroke-miterlimit:4;stroke-dasharray:none;stroke-opacity:1"
       id="circle856"
       cx="219.24516"
       cy="299.20084"
       r="12.152729" />
    <circle
       style="fill:none;fill-opacity:1;stroke:#000000;stroke-width:8.755;stroke-linecap:round;stroke-linejoin:round;stroke-miterlimit:4;stroke-dasharray:none;stroke-opacity:1"
       id="circle858"
       cx="158.00902"
       cy="299.90518"
       r="12.152729" />
    <circle
       style="fill:none;fill-opacity:1;stroke:#000000;stroke-width:8.755;stroke-linecap:round;stroke-linejoin:round;stroke-miterlimit:4;stroke-dasharray:none;stroke-opacity:1"
       id="circle860"
       cx="120.39787"
       cy="283.29871"
       r="12.152729" />
    <circle
       style="fill:none;fill-opacity:1;stroke:#000000;stroke-width:8.755;stroke-linecap:round;stroke-linejoin:round;stroke-miterlimit:4;stroke-dasharray:none;stroke-opacity:1"
       id="circle862"
       cx="56.164986"
       cy="181.20656"
       r="12.152729" />
    <path
       style="fill:#000000;fill-opacity:1;stroke:#000000;stroke-width:1px;stroke-linecap:butt;stroke-linejoin:miter;stroke-opacity:1"
       d="m 206.43333,208.85532 c 4.74339,-21.04454 49.65963,-8.9094 64.34984,6.88839 6.35837,6.83776 4.09482,19.20284 0.95265,27.99549 -1.13714,3.18204 -3.47262,8.65777 -6.68789,7.61829 -8.18511,-2.6462 3.09512,-19.11364 -2.44997,-25.69015 -8.04626,-9.54292 -24.21949,-6.10398 -36.14141,-9.80228 -6.75407,-2.09518 -21.57813,-0.11122 -20.02322,-7.00974 z"
       id="path864"
       sodipodi:nodetypes="aaaaaaa" />
    <path
       style="fill:#000000;fill-opacity:1;stroke:#000000;stroke-width:0.528455px;stroke-linecap:butt;stroke-linejoin:miter;stroke-opacity:1"
       d="m 267.28809,233.47429 c 2.50667,-11.12109 26.24287,-4.70821 34.00598,3.6402 3.36011,3.61345 1.58134,9.97923 0.50343,14.79436 -1.96724,8.78784 -3.74191,26.70012 -12.34281,24.03166 -10.98445,-3.40798 10.71165,-24.62496 4.37702,-34.22417 -3.04674,-4.61689 -10.68908,-2.86682 -15.96225,-4.53772 -3.56245,-1.12882 -11.40307,-0.0588 -10.58137,-3.70433 z"
       id="path866"
       sodipodi:nodetypes="aaaaaaa" />
    <circle
       style="fill:none;fill-opacity:1;stroke:#000000;stroke-width:5.30415;stroke-linecap:round;stroke-linejoin:round;stroke-miterlimit:4;stroke-dasharray:none;stroke-opacity:1"
       id="circle868"
       cx="262.38434"
       cy="255.76108"
       r="7.3626328" />
    <circle
       style="fill:none;fill-opacity:1;stroke:#000000;stroke-width:5.30415;stroke-linecap:round;stroke-linejoin:round;stroke-miterlimit:4;stroke-dasharray:none;stroke-opacity:1"
       id="circle870"
       cx="287.89648"
       cy="280.96979"
       r="7.3626328" />
  </g>
</svg>
